#N canvas 196 59 707 771 12;
#X declare -path ./dependencies;
#X obj 590 43 inlet Q;
#X text 461 20 Gain or V;
#X text 146 13 Freq or K;
#X obj 87 732 outlet;
#X obj 463 43 inlet Gain in dB;
#X obj 87 192 s \$0-freq-K;
#X obj 463 133 s \$0-gain-V;
#X obj 622 192 s \$0-Q;
#X obj 87 133 expr tan(3.141592653589793 * $f1 / $f2);
#X text 240 220 based on Nigel Redmon script 2021 https://www.earlevel.com/main/2021/09/02/biquad-calculator-v3/, f 64;
#N canvas 407 331 223 173 samplerate 0;
#X obj 41 65 samplerate~;
#X obj 41 35 loadbang;
#X obj 41 95 outlet;
#X connect 0 0 2 0;
#X connect 1 0 0 0;
#X restore 357 43 pd samplerate;
#X text 390 732 @ Dalius Singer 2022 Zürich \, Switzerland;
#X obj 590 83 t b f;
#X floatatom 622 163 5 0 0 0 - - - 0;
#X obj 622 133 max 0.01;
#X obj 97 102 f;
#X obj 87 252 coeff.lowpass;
#X obj 117 312 coeff.highpass;
#X obj 148 372 coeff.bandpass;
#X obj 178 432 coeff.bandstop;
#X obj 209 492 coeff.peaknotch, f 26;
#X obj 239 552 coeff.lowshelf, f 15;
#X obj 270 612 coeff.highshelf;
#X obj 301 672 coeff.allpass;
#X obj 87 222 r \$0-freq-K;
#X obj 175 222 r \$0-Q;
#X floatatom 87 163 5 0 0 0 - - - 0;
#N canvas 142 453 1225 340 gates 0;
#X msg 71 173 lowpass 1;
#X obj 71 203 route \$1;
#X obj 25 252 spigot, f 7;
#X obj 25 24 inlet lowpass;
#X obj 495 302 outlet;
#X obj 201 203 route \$1;
#X obj 155 252 spigot, f 7;
#X obj 341 203 route \$1;
#X obj 295 252 spigot, f 7;
#X obj 471 203 route \$1;
#X obj 425 252 spigot, f 7;
#X obj 611 203 route \$1;
#X obj 565 252 spigot, f 7;
#X obj 741 203 route \$1;
#X obj 695 252 spigot, f 7;
#X obj 881 203 route \$1;
#X obj 835 252 spigot, f 7;
#X obj 1011 203 route \$1;
#X obj 965 252 spigot, f 7;
#X obj 155 24 inlet highpass;
#X msg 201 173 highpass 1;
#X obj 295 24 inlet bandpass;
#X msg 341 173 bandpass 1;
#X obj 425 24 inlet bandstop;
#X msg 471 173 bandstop 1;
#X obj 565 24 inlet peaknotch;
#X msg 611 173 peaknotch 1;
#X obj 695 24 inlet lowshelf;
#X msg 741 173 lowshelf 1;
#X obj 835 24 inlet highshelf;
#X msg 881 173 highshelf 1;
#X obj 965 24 inlet allpass;
#X msg 1011 173 allpass 1;
#X obj 1105 25 r \$0-type;
#N canvas 406 374 631 300 thru 0;
#X obj 26 29 inlet;
#X obj 26 95 outlet;
#X connect 0 0 1 0;
#X restore 1137 184 pd thru;
#N canvas 933 514 215 225 loadbang 0;
#X obj 100 57 loadbang;
#X obj 43 155 outlet;
#X obj 43 59 inlet;
#X obj 100 155 outlet;
#X obj 43 105 t b b;
#X connect 0 0 3 0;
#X connect 2 0 4 0;
#X connect 4 0 1 0;
#X connect 4 1 3 0;
#X restore 478 114 pd loadbang;
#X obj 1105 95 t b a;
#X msg 254 233 0;
#X msg 124 233 0;
#X msg 394 233 0;
#X msg 524 233 0;
#X msg 664 233 0;
#X msg 794 233 0;
#X msg 934 233 0;
#X msg 1064 233 0;
#N canvas 672 39 230 258 store 0;
#X obj 31 21 inlet;
#X obj 81 21 inlet;
#X obj 31 186 outlet;
#X obj 58 109 list store;
#X connect 0 0 2 0;
#X connect 0 0 3 1;
#X connect 1 0 3 0;
#X connect 3 0 2 0;
#X restore 25 133 pd store;
#N canvas 672 39 230 258 store 0;
#X obj 31 21 inlet;
#X obj 81 21 inlet;
#X obj 31 186 outlet;
#X obj 58 109 list store;
#X connect 0 0 2 0;
#X connect 0 0 3 1;
#X connect 1 0 3 0;
#X connect 3 0 2 0;
#X restore 155 133 pd store;
#N canvas 672 39 230 258 store 0;
#X obj 31 21 inlet;
#X obj 81 21 inlet;
#X obj 31 186 outlet;
#X obj 58 109 list store;
#X connect 0 0 2 0;
#X connect 0 0 3 1;
#X connect 1 0 3 0;
#X connect 3 0 2 0;
#X restore 295 133 pd store;
#N canvas 672 39 230 258 store 0;
#X obj 31 21 inlet;
#X obj 81 21 inlet;
#X obj 31 186 outlet;
#X obj 58 109 list store;
#X connect 0 0 2 0;
#X connect 0 0 3 1;
#X connect 1 0 3 0;
#X connect 3 0 2 0;
#X restore 425 133 pd store;
#N canvas 672 39 230 258 store 0;
#X obj 31 21 inlet;
#X obj 81 21 inlet;
#X obj 31 186 outlet;
#X obj 58 109 list store;
#X connect 0 0 2 0;
#X connect 0 0 3 1;
#X connect 1 0 3 0;
#X connect 3 0 2 0;
#X restore 565 133 pd store;
#N canvas 672 39 230 258 store 0;
#X obj 31 21 inlet;
#X obj 81 21 inlet;
#X obj 31 186 outlet;
#X obj 58 109 list store;
#X connect 0 0 2 0;
#X connect 0 0 3 1;
#X connect 1 0 3 0;
#X connect 3 0 2 0;
#X restore 695 133 pd store;
#N canvas 672 39 230 258 store 0;
#X obj 31 21 inlet;
#X obj 81 21 inlet;
#X obj 31 186 outlet;
#X obj 58 109 list store;
#X connect 0 0 2 0;
#X connect 0 0 3 1;
#X connect 1 0 3 0;
#X connect 3 0 2 0;
#X restore 835 133 pd store;
#N canvas 672 39 230 258 store 0;
#X obj 31 21 inlet;
#X obj 81 21 inlet;
#X obj 31 186 outlet;
#X obj 58 109 list store;
#X connect 0 0 2 0;
#X connect 0 0 3 1;
#X connect 1 0 3 0;
#X connect 3 0 2 0;
#X restore 965 133 pd store;
#X connect 0 0 1 0;
#X connect 1 0 2 1;
#X connect 1 1 38 0;
#X connect 2 0 4 0;
#X connect 3 0 45 0;
#X connect 5 0 6 1;
#X connect 5 1 37 0;
#X connect 6 0 4 0;
#X connect 7 0 8 1;
#X connect 7 1 39 0;
#X connect 8 0 4 0;
#X connect 9 0 10 1;
#X connect 9 1 40 0;
#X connect 10 0 4 0;
#X connect 11 0 12 1;
#X connect 11 1 41 0;
#X connect 12 0 4 0;
#X connect 13 0 14 1;
#X connect 13 1 42 0;
#X connect 14 0 4 0;
#X connect 15 0 16 1;
#X connect 15 1 43 0;
#X connect 16 0 4 0;
#X connect 17 0 18 1;
#X connect 17 1 44 0;
#X connect 18 0 4 0;
#X connect 19 0 46 0;
#X connect 20 0 5 0;
#X connect 21 0 47 0;
#X connect 22 0 7 0;
#X connect 23 0 48 0;
#X connect 24 0 9 0;
#X connect 25 0 49 0;
#X connect 26 0 11 0;
#X connect 27 0 50 0;
#X connect 28 0 13 0;
#X connect 29 0 51 0;
#X connect 30 0 15 0;
#X connect 31 0 52 0;
#X connect 32 0 17 0;
#X connect 33 0 36 0;
#X connect 34 0 17 1;
#X connect 34 0 15 1;
#X connect 34 0 13 1;
#X connect 34 0 11 1;
#X connect 34 0 9 1;
#X connect 34 0 7 1;
#X connect 34 0 5 1;
#X connect 34 0 1 1;
#X connect 35 0 46 1;
#X connect 35 0 45 1;
#X connect 35 0 47 1;
#X connect 35 0 48 1;
#X connect 35 0 49 1;
#X connect 35 0 50 1;
#X connect 35 0 51 1;
#X connect 35 0 52 1;
#X connect 35 1 0 0;
#X connect 35 1 20 0;
#X connect 35 1 22 0;
#X connect 35 1 24 0;
#X connect 35 1 26 0;
#X connect 35 1 28 0;
#X connect 35 1 30 0;
#X connect 35 1 32 0;
#X connect 36 0 35 0;
#X connect 36 1 34 0;
#X connect 37 0 6 1;
#X connect 38 0 2 1;
#X connect 39 0 8 1;
#X connect 40 0 10 1;
#X connect 41 0 12 1;
#X connect 42 0 14 1;
#X connect 43 0 16 1;
#X connect 44 0 18 1;
#X connect 45 0 2 0;
#X connect 46 0 6 0;
#X connect 47 0 8 0;
#X connect 48 0 10 0;
#X connect 49 0 12 0;
#X connect 50 0 14 0;
#X connect 51 0 16 0;
#X connect 52 0 18 0;
#X restore 87 702 pd gates;
#X f 31;
#X obj 87 73 max 20;
#X obj 117 282 r \$0-freq-K;
#X obj 212 282 r \$0-Q;
#X obj 13 13 inlet Freq & type;
#X obj 13 43 route type, f 11;
#X obj 13 103 s \$0-type;
#X obj 13 73 symbol;
#X obj 148 342 r \$0-freq-K;
#X obj 243 342 r \$0-Q;
#X obj 178 402 r \$0-freq-K;
#X obj 273 402 r \$0-Q;
#X obj 298 462 r \$0-gain-V;
#X obj 209 462 r \$0-freq-K;
#X obj 388 462 r \$0-Q;
#X obj 301 642 r \$0-freq-K;
#X obj 389 642 r \$0-Q;
#X obj 341 522 r \$0-gain-V;
#X obj 239 522 r \$0-freq-K;
#X obj 372 582 r \$0-gain-V;
#X obj 270 582 r \$0-freq-K;
#X obj 144 732 declare -path ./dependencies;
#X connect 0 0 12 0;
#X connect 4 0 6 0;
#X connect 8 0 26 0;
#X connect 10 0 8 1;
#X connect 12 0 15 0;
#X connect 12 1 14 0;
#X connect 13 0 7 0;
#X connect 14 0 13 0;
#X connect 15 0 8 0;
#X connect 16 0 27 0;
#X connect 17 0 27 1;
#X connect 18 0 27 2;
#X connect 19 0 27 3;
#X connect 20 0 27 4;
#X connect 21 0 27 5;
#X connect 22 0 27 6;
#X connect 23 0 27 7;
#X connect 24 0 16 0;
#X connect 25 0 16 1;
#X connect 26 0 5 0;
#X connect 27 0 3 0;
#X connect 28 0 8 0;
#X connect 28 0 15 1;
#X connect 29 0 17 0;
#X connect 30 0 17 1;
#X connect 31 0 32 0;
#X connect 32 0 34 0;
#X connect 32 1 28 0;
#X connect 34 0 33 0;
#X connect 35 0 18 0;
#X connect 36 0 18 1;
#X connect 37 0 19 0;
#X connect 38 0 19 1;
#X connect 39 0 20 1;
#X connect 40 0 20 0;
#X connect 41 0 20 2;
#X connect 42 0 23 0;
#X connect 43 0 23 1;
#X connect 44 0 21 1;
#X connect 45 0 21 0;
#X connect 46 0 22 1;
#X connect 47 0 22 0;
