#N canvas -208 -546 1230 518 12;
#X obj 17 352 pack f f f f f, f 37;
#X obj 17 102 expr 1 / (1 + $f1 / $f2 + $f1 * $f1);
#X obj 17 292 r \$0-a0;
#X obj 436 162 r \$0-a0;
#X obj 273 162 r \$0-a0;
#X obj 17 222 s \$0-a0;
#X obj 273 222 s \$0-a1;
#X text 504 223 a2 = a0;
#X obj 436 222 s \$0-a2;
#X obj 581 192 expr 2 * ($f1 * $f1 - 1) * $f2;
#X obj 581 222 s \$0-b1;
#X obj 581 162 r \$0-freq-K;
#X obj 897 192 expr (1 - $f1 / $f3 + $f1 * $f1) * $f2;
#X obj 897 222 s \$0-b2;
#X obj 897 162 r \$0-freq-K;
#X obj 1160 162 r \$0-Q;
#X obj 81 292 r \$0-a1;
#X obj 145 292 r \$0-a2;
#X obj 209 292 r \$0-b1;
#X obj 273 292 r \$0-b2;
#X obj 17 132 s \$0-norm;
#X obj 788 162 r \$0-norm;
#X obj 1028 162 r \$0-norm;
#X text 28 263 Classic coefficients: a0 a1 a2 b1 b2;
#X text 286 104 norm = 1 / (1 + K / Q + K * K);
#X text 78 222 a0 = 1 * norm;
#X text 334 223 a1 = -2 * a0;
#X text 638 224 b1 = 2 * (K * K - 1) * norm;
#X text 959 223 b2 = (1 - K / Q + K * K) * norm;
#X obj 17 192 expr 1 * $f1;
#X obj 17 162 r \$0-norm;
#X obj 273 192 expr -2 * $f1;
#X text 369 265 PD coefficients: fb1 fb2 ff0 ff1 ff2;
#X obj 280 482 outlet;
#X obj 475 292 r \$0-a0;
#X obj 539 292 r \$0-a1;
#X obj 603 292 r \$0-a2;
#X obj 347 292 r \$0-b1;
#X obj 411 292 r \$0-b2;
#X obj 347 352 * -1;
#X obj 411 352 * -1;
#X obj 280 452 list store;
#X obj 603 352 t b b f;
#X obj 603 322 pipe;
#X text 644 322 << This makes a2 always come last;
#X obj 347 412 pack f f f f f, f 37;
#X obj 17 12 inlet freqq K;
#X obj 234 12 inlet Q;
#X obj 17 72 s \$0-freq-K;
#X obj 234 72 s \$0-Q;
#X obj 17 42 t f f;
#X obj 234 42 t f f;
#X obj 298 12 loadbang;
#X msg 298 42 0.7;
#X text 335 42 default value;
#X text 925 7 @ Dalius Singer 2022 Zürich \, Switzerland;
#X connect 1 0 20 0;
#X connect 2 0 0 0;
#X connect 3 0 8 0;
#X connect 4 0 31 0;
#X connect 9 0 10 0;
#X connect 11 0 9 0;
#X connect 12 0 13 0;
#X connect 14 0 12 0;
#X connect 15 0 12 2;
#X connect 16 0 0 1;
#X connect 17 0 0 2;
#X connect 18 0 0 3;
#X connect 19 0 0 4;
#X connect 21 0 9 1;
#X connect 22 0 12 1;
#X connect 29 0 5 0;
#X connect 30 0 29 0;
#X connect 31 0 6 0;
#X connect 34 0 45 2;
#X connect 35 0 45 3;
#X connect 36 0 43 0;
#X connect 37 0 39 0;
#X connect 38 0 40 0;
#X connect 39 0 45 0;
#X connect 40 0 45 1;
#X connect 41 0 33 0;
#X connect 42 0 41 0;
#X connect 42 1 45 0;
#X connect 42 2 45 4;
#X connect 43 0 42 0;
#X connect 45 0 41 1;
#X connect 46 0 50 0;
#X connect 47 0 51 0;
#X connect 50 0 48 0;
#X connect 50 1 1 0;
#X connect 51 0 49 0;
#X connect 51 1 1 1;
#X connect 52 0 53 0;
#X connect 53 0 51 0;
