#N canvas 856 662 1555 661 12;
#X obj 17 382 pack f f f f f, f 37;
#X obj 17 322 r \$0-a0;
#X obj 17 252 s \$0-a0;
#X obj 366 252 s \$0-a1;
#X obj 651 252 s \$0-a2;
#X obj 996 252 s \$0-b1;
#X obj 17 192 r \$0-freq-K;
#X obj 1122 252 s \$0-b2;
#X obj 1122 192 r \$0-freq-K;
#X obj 1413 192 r \$0-Q;
#X obj 81 322 r \$0-a1;
#X obj 145 322 r \$0-a2;
#X obj 209 322 r \$0-b1;
#X obj 273 322 r \$0-b2;
#X obj 17 162 s \$0-norm;
#X obj 211 192 r \$0-norm;
#X obj 1316 192 r \$0-norm;
#X text 28 293 Classic coefficients: a0 a1 a2 b1 b2;
#X text 369 295 PD coefficients: fb1 fb2 ff0 ff1 ff2;
#X obj 280 512 outlet;
#X obj 475 322 r \$0-a0;
#X obj 539 322 r \$0-a1;
#X obj 603 322 r \$0-a2;
#X obj 347 322 r \$0-b1;
#X obj 411 322 r \$0-b2;
#X obj 347 382 * -1;
#X obj 411 382 * -1;
#X obj 280 482 list store;
#X obj 603 382 t b b f;
#X obj 603 352 pipe;
#X text 644 352 << This makes a2 always come last;
#X obj 347 442 pack f f f f f, f 37;
#X obj 17 12 inlet freqq K;
#X obj 262 12 inlet Q;
#X obj 17 102 s \$0-freq-K;
#X obj 262 102 s \$0-Q;
#X obj 17 72 t f f;
#X obj 262 72 t f f;
#X obj 326 12 loadbang;
#X msg 326 72 0.7;
#X text 363 72 default value;
#X text 925 7 @ Dalius Singer 2022 Zürich \, Switzerland;
#X text 324 122 norm = 1 / (1 + 1/Q * K + K * K);
#X text 324 142 norm = 1 / (1 + V/Q * K + K * K);
#X obj 17 132 expr 1 / (1 + $f2/$f3 * $f1 + $f1 * $f1);
#X obj 123 12 inlet gain V;
#X obj 155 72 s \$0-gain-V;
#X text 78 252 a0 = (1 + V/Q * K + K * K) * norm;
#X obj 308 192 r \$0-Q;
#N canvas 1012 430 412 231 gain-r 1;
#X obj 85 104 expr pow(10 \, abs($f1) / 20);
#X obj 39 74 split 0;
#X msg 39 104 1;
#X obj 39 147 outlet;
#X text 39 14 A codition if gain is over or = 0dB;
#X text 289 104 dB to Linear;
#X obj 39 44 r \$0-gain-V;
#X connect 0 0 3 0;
#X connect 1 0 2 0;
#X connect 1 1 0 0;
#X connect 2 0 3 0;
#X connect 6 0 1 0;
#X restore 114 192 pd gain-r;
#X text 427 253 a1 = 2 * (K * K - 1) * norm;
#X obj 366 222 expr 2 * ($f1 * $f1 - 1) * $f2;
#X obj 366 192 r \$0-freq-K;
#X obj 573 192 r \$0-norm;
#X text 716 253 a2 = (1 - V/Q * K + K * K) * norm;
#X obj 651 222 expr (1 - $f2/$f4 * $f1 + $f1 * $f1) * $f3;
#X obj 17 222 expr (1 + $f2/$f4 * $f1 + $f1 * $f1) * $f3;
#X obj 651 192 r \$0-freq-K;
#X obj 845 192 r \$0-norm;
#X obj 942 192 r \$0-Q;
#N canvas 616 431 412 231 gain-r 0;
#X obj 85 104 expr pow(10 \, abs($f1) / 20);
#X obj 39 74 split 0;
#X msg 39 104 1;
#X obj 39 147 outlet;
#X text 39 14 A codition if gain is over or = 0dB;
#X text 289 104 dB to Linear;
#X obj 39 44 r \$0-gain-V;
#X connect 0 0 3 0;
#X connect 1 0 2 0;
#X connect 1 1 0 0;
#X connect 2 0 3 0;
#X connect 6 0 1 0;
#X restore 748 192 pd gain-r;
#X text 1055 253 b1 = a1;
#X obj 996 192 r \$0-a1;
#X obj 1122 222 expr (1 - $f2/$f4 * $f1 + $f1 * $f1) * $f3;
#X text 78 272 a0 = (1 + 1/Q * K + K * K) * norm \;;
#X text 716 273 a2 = (1 - 1/Q * K + K * K) * norm \;;
#X text 1184 253 b2 = (1 - 1/Q * K + K * K) * norm;
#X text 1184 273 b2 = (1 - V/Q * K + K * K) * norm;
#N canvas 1470 435 378 231 gain-r 1;
#X obj 39 104 expr pow(10 \, abs($f1) / 20);
#X obj 39 74 split 0;
#X msg 85 134 1;
#X obj 39 187 outlet;
#X text 39 14 A codition if gain is over or = 0dB;
#X text 239 104 dB to Linear;
#X obj 39 44 r \$0-gain-V;
#X connect 0 0 3 0;
#X connect 1 0 0 0;
#X connect 1 1 2 0;
#X connect 2 0 3 0;
#X connect 6 0 1 0;
#X restore 1219 192 pd gain-r;
#N canvas 616 431 378 231 gain-r 1;
#X obj 39 104 expr pow(10 \, abs($f1) / 20);
#X obj 39 74 split 0;
#X msg 85 134 1;
#X obj 39 187 outlet;
#X text 39 14 A codition if gain is over or = 0dB;
#X text 239 104 dB to Linear;
#X obj 39 44 r \$0-gain-V;
#X connect 0 0 3 0;
#X connect 1 0 0 0;
#X connect 1 1 2 0;
#X connect 2 0 3 0;
#X connect 6 0 1 0;
#X restore 155 102 pd gain-r;
#X obj 123 42 t b f;
#X floatatom 17 43 5 0 0 0 - - - 0;
#X connect 1 0 0 0;
#X connect 6 0 56 0;
#X connect 8 0 63 0;
#X connect 9 0 63 3;
#X connect 10 0 0 1;
#X connect 11 0 0 2;
#X connect 12 0 0 3;
#X connect 13 0 0 4;
#X connect 15 0 56 2;
#X connect 16 0 63 2;
#X connect 20 0 31 2;
#X connect 21 0 31 3;
#X connect 22 0 29 0;
#X connect 23 0 25 0;
#X connect 24 0 26 0;
#X connect 25 0 31 0;
#X connect 26 0 31 1;
#X connect 27 0 19 0;
#X connect 28 0 27 0;
#X connect 28 1 31 0;
#X connect 28 2 31 4;
#X connect 29 0 28 0;
#X connect 31 0 27 1;
#X connect 32 0 71 0;
#X connect 33 0 37 0;
#X connect 36 0 34 0;
#X connect 36 1 44 0;
#X connect 37 0 35 0;
#X connect 37 1 44 2;
#X connect 38 0 39 0;
#X connect 39 0 37 0;
#X connect 44 0 14 0;
#X connect 45 0 70 0;
#X connect 48 0 56 3;
#X connect 49 0 56 1;
#X connect 51 0 3 0;
#X connect 52 0 51 0;
#X connect 53 0 51 1;
#X connect 55 0 4 0;
#X connect 56 0 2 0;
#X connect 57 0 55 0;
#X connect 58 0 55 2;
#X connect 59 0 55 3;
#X connect 60 0 55 1;
#X connect 62 0 5 0;
#X connect 63 0 7 0;
#X connect 68 0 63 1;
#X connect 69 0 44 1;
#X connect 70 0 71 0;
#X connect 70 1 46 0;
#X connect 71 0 36 0;
