#N canvas 114 157 901 531 12;
#X obj 17 362 pack f f f f f, f 37;
#X obj 17 302 r \$0-a0;
#X obj 81 302 r \$0-a1;
#X obj 145 302 r \$0-a2;
#X obj 209 302 r \$0-b1;
#X obj 273 302 r \$0-b2;
#X text 28 273 Classic coefficients: a0 a1 a2 b1 b2;
#X text 369 275 PD coefficients: fb1 fb2 ff0 ff1 ff2;
#X obj 280 492 outlet;
#X obj 475 302 r \$0-a0;
#X obj 539 302 r \$0-a1;
#X obj 603 302 r \$0-a2;
#X obj 347 302 r \$0-b1;
#X obj 411 302 r \$0-b2;
#X obj 347 362 * -1;
#X obj 411 362 * -1;
#X obj 280 462 list store;
#X obj 603 362 t b b f;
#X obj 603 332 pipe;
#X text 644 292 << This makes a2 always come last;
#X obj 347 422 pack f f f f f, f 37;
#X obj 17 12 inlet freqq K;
#X obj 17 112 s \$0-freq-K;
#X text 595 7 @ Dalius Singer 2022 Zürich \, Switzerland;
#X obj 133 12 inlet gain V;
#X obj 179 82 expr pow(10 \, abs($f1) / 20);
#X obj 123 112 >= 0;
#X obj 239 152 != 1;
#X obj 17 212 spigot;
#X obj 17 152 r \$0-freq-K;
#X obj 179 112 s \$0-gain-V;
#X obj 147 152 r \$0-gain-V;
#X obj 200 212 spigot;
#X obj 133 42 t f f, f 7;
#N canvas 614 501 204 179 pack 0;
#X obj 35 26 inlet;
#X obj 126 26 inlet;
#X obj 126 56 t b f;
#X obj 35 125 outlet;
#X obj 35 95 pack f f, f 18;
#X connect 0 0 4 0;
#X connect 1 0 2 0;
#X connect 2 0 4 0;
#X connect 2 1 4 1;
#X connect 4 0 3 0;
#X restore 17 182 pd pack @trigger -1;
#N canvas 217 274 868 539 Gain(>=0dB) 0;
#X obj 31 88 s \$0-a0;
#X obj 31 188 s \$0-a1;
#X obj 31 288 s \$0-a2;
#X obj 31 388 s \$0-b1;
#X obj 31 488 s \$0-b2;
#X obj 525 28 inlet;
#X obj 465 148 s \$0-freq-1;
#X obj 364 28 r \$0-norm-1;
#X obj 557 178 s \$0-norm-1;
#X obj 31 28 r \$0-freq-1;
#X obj 620 98 s \$0-gain-1;
#X obj 525 98 t f f;
#X obj 557 148 expr 1 / (1 + sqrt(2) * $f1 + $f1 * $f1);
#X obj 197 28 r \$0-gain-1;
#X obj 252 128 r \$0-norm-1;
#X obj 31 128 r \$0-freq-1;
#X obj 141 128 r \$0-gain-1;
#X obj 364 228 r \$0-norm-1;
#X obj 31 228 r \$0-freq-1;
#X obj 197 228 r \$0-gain-1;
#X obj 31 328 r \$0-freq-1;
#X obj 31 428 r \$0-freq-1;
#X obj 238 328 r \$0-norm-1;
#X obj 322 428 r \$0-norm-1;
#X obj 31 358 expr 2 * ($f1 * $f1 - 1) * $f2;
#X obj 31 458 expr (1 - sqrt(2) * $f1 + $f1 * $f1) * $f2;
#X obj 525 58 unpack f f, f 14;
#X text 563 128 norm = 1 / (1 + Math.SQRT2 * K + K * K);
#X text 88 89 a0 = (V + Math.sqrt(2*V) * K + K * K) * norm;
#X text 89 189 a1 = 2 * (K * K - V) * norm;
#X text 89 290 a2 = (V - Math.sqrt(2*V) * K + K * K) * norm;
#X text 89 390 b1 = 2 * (K * K - 1) * norm;
#X text 93 489 b2 = (1 - Math.SQRT2 * K + K * K) * norm;
#X obj 31 58 expr ($f2 + sqrt(2*$f2) * $f1 + $f1 * $f1) * $f3;
#X obj 31 158 expr 2 * ($f1 * $f1 - $f2) * $f3;
#X obj 31 258 expr ($f2 - sqrt(2*$f2) * $f1 + $f1 * $f1) * $f3;
#X connect 5 0 26 0;
#X connect 7 0 33 2;
#X connect 9 0 33 0;
#X connect 11 0 6 0;
#X connect 11 1 12 0;
#X connect 12 0 8 0;
#X connect 13 0 33 1;
#X connect 14 0 34 2;
#X connect 15 0 34 0;
#X connect 16 0 34 1;
#X connect 17 0 35 2;
#X connect 18 0 35 0;
#X connect 19 0 35 1;
#X connect 20 0 24 0;
#X connect 21 0 25 0;
#X connect 22 0 24 1;
#X connect 23 0 25 1;
#X connect 24 0 3 0;
#X connect 25 0 4 0;
#X connect 26 0 11 0;
#X connect 26 1 10 0;
#X connect 33 0 0 0;
#X connect 34 0 1 0;
#X connect 35 0 2 0;
#X restore 17 242 pd Gain(>=0dB);
#N canvas 182 267 941 539 Gain(<0dB) 0;
#X obj 21 88 s \$0-a0;
#X obj 21 188 s \$0-a1;
#X obj 21 288 s \$0-a2;
#X obj 21 388 s \$0-b1;
#X obj 21 488 s \$0-b2;
#X obj 515 28 inlet;
#X obj 515 98 t f f;
#X obj 515 58 unpack f f, f 14;
#X obj 455 178 s \$0-freq-2;
#X obj 547 208 s \$0-norm-2;
#X obj 21 28 r \$0-freq-2;
#X obj 21 128 r \$0-freq-2;
#X obj 21 228 r \$0-freq-2;
#X obj 21 328 r \$0-freq-2;
#X obj 21 428 r \$0-freq-2;
#X obj 228 128 r \$0-norm-2;
#X obj 312 228 r \$0-norm-2;
#X obj 242 328 r \$0-norm-2;
#X obj 354 428 r \$0-norm-2;
#X obj 610 128 s \$0-gain-2;
#X obj 610 98 t f f, f 37;
#X obj 21 58 expr (1 + sqrt(2) * $f1 + $f1 * $f1) * $f2;
#X obj 312 28 r \$0-norm-2;
#X obj 21 158 expr 2 * ($f1 * $f1 - 1) * $f2;
#X obj 21 258 expr (1 - sqrt(2) * $f1 + $f1 * $f1) * $f2;
#X obj 131 328 r \$0-gain-2;
#X obj 187 428 r \$0-gain-2;
#X text 553 155 norm = 1 / (V + Math.sqrt(2*V) * K + K * K);
#X text 78 89 a0 = (1 + Math.SQRT2 * K + K * K) * norm;
#X text 79 189 a1 = 2 * (K * K - 1) * norm;
#X text 79 290 a2 = (1 - Math.SQRT2 * K + K * K) * norm;
#X text 79 389 b1 = 2 * (K * K - V) * norm;
#X text 83 489 b2 = (V - Math.sqrt(2*V) * K + K * K) * norm;
#X obj 21 358 expr 2 * ($f1 * $f1 - $f2) * $f3;
#X obj 21 458 expr ($f2 - sqrt(2*$f2) * $f1 + $f1 * $f1) * $f3;
#X obj 547 178 expr 1 / ($f2 + sqrt(2*$f2) * $f1 + $f1 * $f1);
#X connect 5 0 7 0;
#X connect 6 0 8 0;
#X connect 6 1 35 0;
#X connect 7 0 6 0;
#X connect 7 1 20 0;
#X connect 10 0 21 0;
#X connect 11 0 23 0;
#X connect 12 0 24 0;
#X connect 13 0 33 0;
#X connect 14 0 34 0;
#X connect 15 0 23 1;
#X connect 16 0 24 1;
#X connect 17 0 33 2;
#X connect 18 0 34 2;
#X connect 20 0 19 0;
#X connect 20 1 35 1;
#X connect 21 0 0 0;
#X connect 22 0 21 1;
#X connect 23 0 1 0;
#X connect 24 0 2 0;
#X connect 25 0 33 1;
#X connect 26 0 34 1;
#X connect 33 0 3 0;
#X connect 34 0 4 0;
#X connect 35 0 9 0;
#X restore 200 242 pd Gain(<0dB);
#X connect 1 0 0 0;
#X connect 2 0 0 1;
#X connect 3 0 0 2;
#X connect 4 0 0 3;
#X connect 5 0 0 4;
#X connect 9 0 20 2;
#X connect 10 0 20 3;
#X connect 11 0 18 0;
#X connect 12 0 14 0;
#X connect 13 0 15 0;
#X connect 14 0 20 0;
#X connect 15 0 20 1;
#X connect 16 0 8 0;
#X connect 17 0 16 0;
#X connect 17 1 20 0;
#X connect 17 2 20 4;
#X connect 18 0 17 0;
#X connect 20 0 16 1;
#X connect 21 0 22 0;
#X connect 24 0 33 0;
#X connect 25 0 30 0;
#X connect 26 0 27 0;
#X connect 26 0 28 1;
#X connect 27 0 32 1;
#X connect 28 0 35 0;
#X connect 29 0 34 0;
#X connect 31 0 34 1;
#X connect 32 0 36 0;
#X connect 33 0 25 0;
#X connect 33 1 26 0;
#X connect 34 0 28 0;
#X connect 34 0 32 0;
