#N canvas 640 448 230 282 12;
#X obj 95 174 spigot;
#X obj 38 174 spigot;
#X obj 102 117 != 1;
#X obj 95 27 inlet;
#X obj 38 204 outlet;
#X obj 95 204 outlet;
#X obj 134 87 >= \$1;
#X obj 95 57 t f f, f 6;
#X connect 0 0 5 0;
#X connect 1 0 4 0;
#X connect 2 0 1 1;
#X connect 3 0 7 0;
#X connect 6 0 0 1;
#X connect 6 0 2 0;
#X connect 7 0 0 0;
#X connect 7 0 1 0;
#X connect 7 1 6 0;
